# xmcd CD database file
#
# Track frame offsets:
#	150
#	12601
#	25446
#	38106
#	50774
#	63646
#	76569
#	89339
#	101798
#	113488
#	125384
#	138153
#	150524
#	162100
#	175355
#	187623
#	201053
#	213786
#	226953
#	238834
#
# Disc length: 3350 seconds
#
# Revision: 0
# Processed by: cddbd v1.5.2PL0 Copyright (c) Steve Scherf et al.
# Submitted via: CDex 1.51
#
DISCID=000d1414
DTITLE=Hank Williams - The Hillbilly Shakespeare [CD1]
DYEAR=2006
DGENRE=Country
TTITLE0=Move it on Over
TTITLE1=I'm a Long Gone Daddy
TTITLE2=Honky Tonkin'
TTITLE3=I Don't Care (If Tomorrow Never Comes)
TTITLE4=When God Comes and Gathers His Jewels
TTITLE5=I Can't Get You Off My Mind
TTITLE6=Pan American
TTITLE7=I Saw the Light
TTITLE8=A Mansion on the Hill
TTITLE9=I'll Be a Bachelor Till I Die
TTITLE10=There'll Be No Teardrops Tonight
TTITLE11=Lovesick Blues
TTITLE12=My Bucket's Got a Hole In It
TTITLE13=Mind Your Own Business
TTITLE14=Lost Highway
TTITLE15=You're Gonna Change (Or I'm Gonna Leave)
TTITLE16=I Just Don't Like This Kind of Livin'
TTITLE17=Wedding Bells
TTITLE18=Long Gone Lonesome Blues
TTITLE19=I'm So Lonesome I Could Cry
EXTD=YEAR: 2006
EXTT0=
EXTT1=
EXTT2=
EXTT3=
EXTT4=
EXTT5=
EXTT6=
EXTT7=
EXTT8=
EXTT9=
EXTT10=
EXTT11=
EXTT12=
EXTT13=
EXTT14=
EXTT15=
EXTT16=
EXTT17=
EXTT18=
EXTT19=
PLAYORDER=
